PathFileType	4	(X/Y/Z)	maxSprint.trc
DataRate	CameraRate	NumFrames	NumMarkers	Units	OrigDataRate	OrigDataStartFrame	OrigNumFrames
250.000000	250.000000	4	38	mm	250.000000	282	377
Frame#	Time	RASI			LASI			LAIC			RTH1			RTH2			RTH3			RTB1			RTB2			RTB3			RMT1			RMT5			LTH1			LTH2			LTH3			LTB1			LTB3			CLAV			STRN			RACR			LACR			LMT5			RPSI			LTB2			LMT1			RAIC			LCAL			T10			C7			LPSI			RCAL			*30			*31			*32			*33			RHJC			LHJC			MTOR			MPEL			
		X1	Y1	Z1	X2	Y2	Z2	X3	Y3	Z3	X4	Y4	Z4	X5	Y5	Z5	X6	Y6	Z6	X7	Y7	Z7	X8	Y8	Z8	X9	Y9	Z9	X10	Y10	Z10	X11	Y11	Z11	X12	Y12	Z12	X13	Y13	Z13	X14	Y14	Z14	X15	Y15	Z15	X16	Y16	Z16	X17	Y17	Z17	X18	Y18	Z18	X19	Y19	Z19	X20	Y20	Z20	X21	Y21	Z21	X22	Y22	Z22	X23	Y23	Z23	X24	Y24	Z24	X25	Y25	Z25	X26	Y26	Z26	X27	Y27	Z27	X28	Y28	Z28	X29	Y29	Z29	X30	Y30	Z30	X31	Y31	Z31	X32	Y32	Z32	X33	Y33	Z33	X34	Y34	Z34	X35	Y35	Z35	X36	Y36	Z36	X37	Y37	Z37	X38	Y38	Z38	

283	1.128	2824.551513671876	984.782104492188	280.8203125000001	2783.977539062501	1011.359436035157	68.01425933837893	2708.004150390626	1077.23046875	44.02576065063478	2681.395507812501	761.3506469726565	365.4591369628907	2701.950439453126	662.715515136719	346.3750000000001	2621.554687500001	594.877380371094	348.9126586914064	2443.381591796876	512.5178833007815	250.1012725830079	2372.555175781251	535.8853759765627	296.1044311523439	2318.551025390626	573.3796386718752	244.1762084960939	2038.212524414063	609.2797851562502	205.3821105957032	2024.281005859376	645.2714843750002	306.5318603515626	2857.839111328126	729.7236938476565	-4.603752613067629	2777.241210937501	788.0786132812505	-0.08267759531736377	2855.712890625001	637.8266601562502	41.93241119384767	3012.493408203126	436.370056152344	133.3850860595704	3020.281494140626	301.8575439453126	165.2429809570313	2848.347656250001	1422.632690429688	124.2186737060547	2874.717041015626	1227.398193359375	134.4775848388672	2848.138671875001	1466.109375	350.3746643066407	2681.866943359376	1456.848022460938	-26.22400665283205	3133.141357421877	61.32193374633792	94.6299743652344	2647.786865234376	1059.3916015625	259.9581604003907	3022.065185546876	356.3097229003907	101.7488555908204	3164.677246093752	98.81095123291021	191.0591888427735	2769.916503906251	1076.264526367188	341.970184326172	2941.706787109376	75.77741241455081	219.7153930664064	2643.363037109376	1259.157348632813	218.5964965820314	2728.285156250001	1502.065673828125	162.1921386718751	2630.282958984376	1056.472290039063	164.3923797607422	2204.601806640626	753.9447021484377	213.1879882812501	2582.282226562501	529.733825683594	335.0243530273439	2188.103759765626	700.2971191406252	281.4073181152345	2975.725341796876	116.1965408325196	143.5087890625001	2931.751953125001	551.9905395507815	51.03835296630862	2755.103215149378	942.381637264835	250.7171389602977	2728.321677849921	959.9244538828945	110.2509089404925	2776.659606933595	1461.913940429688	152.6403675079346	2721.649719238282	1028.001358032227	193.296277999878	
284	1.132	2851.902099609376	983.865844726563	279.3258056640626	2809.593261718751	1010.202514648438	67.23124694824222	2733.882080078126	1076.515869140625	43.63160705566408	2711.443603515626	759.001647949219	365.7139282226564	2734.160644531251	660.7330322265627	346.9449157714845	2655.166015625001	591.3145141601565	349.5359802246095	2479.990722656251	512.393493652344	251.3943176269532	2410.482177734376	539.5562133789065	297.262176513672	2357.731689453126	578.333923339844	245.1378784179689	2079.791259765626	623.7363281250002	206.3307495117189	2067.573974609376	659.417419433594	307.9559631347657	2878.840576171876	724.4478149414065	-2.740822315216065	2800.189941406251	784.8000488281255	1.516054987907411	2874.851318359376	633.025817871094	44.5592727661133	3030.654296875001	429.632507324219	132.9268035888672	3036.683593750001	294.9397277832032	164.4944763183594	2874.427978515626	1421.297729492188	123.6874771118165	2901.495117187501	1226.190673828125	134.1829681396485	2872.462158203126	1464.2568359375	350.6190795898439	2707.718505859376	1452.448852539063	-28.5883255004883	3145.895019531252	51.44747161865237	92.32096099853518	2674.858154296876	1057.916870117188	260.6648864746095	3038.795898437501	349.5680236816407	101.0670547485352	3178.232666015627	87.52181243896487	188.8696899414063	2798.154785156251	1074.743774414063	341.1147766113282	2954.804687500001	69.57789611816409	217.4105682373048	2669.553710937501	1258.121948242188	217.4708862304689	2754.012207031251	1500.6181640625	160.8910522460938	2656.668212890626	1055.465576171875	165.1112213134766	2249.944335937501	763.7369384765627	213.8230590820314	2617.858154296876	526.1968994140627	336.2218627929689	2232.367675781251	710.1336059570315	281.5398254394532	2989.430664062501	109.8730163574219	141.5591278076172	2951.791503906251	547.6628417968752	51.62469482421878	2782.288300264639	941.4696742661827	249.9086261816805	2754.361632051054	958.853641291235	109.9120045189542	2802.155212402345	1459.655395507813	151.6523208618165	2748.255432128907	1026.862701416016	193.0832901000977	
285	1.136	2879.002197265626	982.831420898438	277.7965698242189	2835.280761718751	1008.961242675782	66.36358642578128	2759.604003906251	1075.609619140625	43.76128005981447	2741.879150390626	756.5254516601565	365.9057006835939	2766.616943359376	658.6051025390627	347.5553283691407	2689.058593750001	587.6196899414065	350.1452941894532	2517.070556640626	512.1668701171877	252.9365234375001	2449.227539062501	542.7368164062502	298.7137756347657	2397.553466796876	582.854431152344	246.2019042968751	2122.241210937501	637.1708984375002	207.3419952392579	2111.600341796876	671.9351806640627	309.4603881835939	2900.321777343751	719.7651977539065	-0.3543047308921815	2823.234619140626	781.5212402343755	3.412224531173708	2894.299316406251	628.3958740234377	46.50376510620119	3048.146240234376	422.790222167969	132.5526733398438	3052.147216796876	287.760955810547	163.5366363525391	2900.523925781251	1419.788330078125	123.1521606445313	2928.352539062501	1224.979125976563	133.9361114501954	2896.567138671876	1462.346801757813	350.9082031250001	2733.776367187501	1447.941650390625	-31.34114646911623	3157.828125000002	41.4064292907715	90.49540710449222	2701.866210937501	1056.374267578125	261.6640625000001	3054.952148437501	342.7446594238282	100.3425292968751	3190.660156250002	75.71667480468753	187.3433380126954	2826.281250000001	1072.392333984375	340.8333740234376	2966.731933593751	63.49405670166018	214.8302612304689	2696.535400390626	1256.713134765625	216.7626800537111	2779.721435546876	1499.083984375	159.7526245117188	2683.143554687501	1054.125	165.8909912109376	2295.868652343751	772.6867065429692	215.0845184326173	2653.854492187501	522.7813110351565	337.4598693847657	2277.267089843751	718.8433837890627	282.3675537109376	3002.368164062501	103.3781738281251	139.4977111816407	2971.950683593751	543.1941528320315	51.81555175781253	2809.287368829233	940.4334426206175	248.950871384917	2780.428286255553	957.6808791440463	109.3909083971254	2827.647216796876	1457.290191650391	150.6179604530335	2774.823181152345	1025.572982788086	192.9288024902345	
286	1.14	2906.092041015626	981.8117065429692	276.5761108398439	2861.131103515626	1007.476196289063	65.48741149902347	2785.780517578126	1074.394409179688	43.42972564697267	2772.688232421876	753.7401123046877	366.2492065429689	2799.382568359376	656.3082275390627	348.2266235351564	2723.272216796876	583.7532958984377	350.8552551269532	2554.846435546876	511.4395446777346	254.2755126953126	2488.540771484376	545.297058105469	299.9800415039064	2437.963623046876	586.488952636719	247.4244384765626	2165.568603515626	649.624450683594	208.1517944335939	2156.340087890626	682.9145507812502	311.1411743164064	2922.386718750001	715.6521606445315	2.195865869522096	2846.297607421876	778.3715820312505	5.366400241851808	2914.142089843751	623.7220458984377	47.52542114257814	3065.012451171876	415.840515136719	132.2071990966797	3067.120117187501	280.5649719238282	162.4131164550782	2926.713867187501	1418.261352539063	122.7329635620118	2955.213378906251	1223.721435546875	133.6514739990235	2920.506103515626	1460.231323242188	351.103973388672	2760.165771484376	1443.135009765625	-34.50258255004884	3168.114257812502	34.01273345947267	88.47541046142581	2728.699218750001	1054.468505859375	261.8406066894532	3070.615722656251	335.8355102539064	99.43639373779303	3201.445312500002	63.55854415893558	187.3687286376954	2852.198730468751	1070.248413085938	342.0452880859376	2976.643066406251	59.70168685913089	213.4916534423829	2722.656738281251	1255.125244140625	216.1559143066407	2805.597412109376	1497.264770507813	158.0438232421876	2709.967285156251	1052.292602539063	166.3729095458985	2342.006103515626	780.626098632813	216.4131011962892	2690.150390625001	519.1042480468752	338.5445556640626	2322.653076171876	726.4367675781252	283.4222106933595	3014.333007812501	97.07902526855474	137.2172241210938	2991.826660156251	538.4670410156252	52.11513519287112	2836.420073655486	939.1644564033318	248.1947867538824	2806.742834677366	956.1047436348056	108.8620654128717	2853.24578857422	1454.723114013672	149.3445444107057	2801.472412109376	1024.012252807618	192.5692596435548	
